<?xml version="1.0" encoding="UTF-8" standalone="no"?>
<!-- Generator: visioncortex VTracer 0.6.4 -->

<svg
   version="1.1"
   width="648"
   height="678"
   id="svg12"
   sodipodi:docname="logo.svg"
   inkscape:version="1.4 (e7c3feb1, 2024-10-09)"
   xmlns:inkscape="http://www.inkscape.org/namespaces/inkscape"
   xmlns:sodipodi="http://sodipodi.sourceforge.net/DTD/sodipodi-0.dtd"
   xmlns="http://www.w3.org/2000/svg"
   xmlns:svg="http://www.w3.org/2000/svg">
  <sodipodi:namedview
     id="namedview1"
     pagecolor="#ffffff"
     bordercolor="#000000"
     borderopacity="0.25"
     inkscape:showpageshadow="2"
     inkscape:pageopacity="0.0"
     inkscape:pagecheckerboard="0"
     inkscape:deskcolor="#d1d1d1"
     inkscape:zoom="1.0943458"
     inkscape:cx="290.12766"
     inkscape:cy="244.43827"
     inkscape:window-width="1512"
     inkscape:window-height="920"
     inkscape:window-x="0"
     inkscape:window-y="34"
     inkscape:window-maximized="1"
     inkscape:current-layer="svg12" />
  <defs
     id="defs12">
    <inkscape:path-effect
       effect="powerclip"
       message=""
       id="path-effect1"
       is_visible="true"
       lpeversion="1"
       inverse="true"
       flatten="false"
       hide_clip="false" />
    <clipPath
       clipPathUnits="userSpaceOnUse"
       id="clipPath1">
      <path
         id="lpe_path-effect1"
         style="fill:#f2f2f2;fill-opacity:1"
         class="powerclip"
         d="M 89.470477,12.949648 H 560.9771 V 463.27404 H 89.470477 Z M 296,272 c -3.32443,-0.23746 -5.64448,-0.14544 -8.75,1.125 -1.105,0.6375 -2.1775,1.25625 -3.25,1.875 -19.36291,10.36921 -34.10143,26.53099 -41.60938,47.25781 C 239.18868,331.99444 235.18917,348.37833 240,358 c 2.79801,3.29765 4.68434,4.52048 9,5 1.36403,-2.29703 1.9957,-3.95857 2.27344,-6.63672 0.11578,-3.47795 0.3701,-6.90103 0.72656,-10.36328 3.85,-23.6789 15.29181,-43.1017 34.25,-57.625 4.55154,-3.34963 7.964,-6.30448 10.75,-11.375 -0.25,-2.875 -0.25,-2.875 -1,-5 z" />
    </clipPath>
  </defs>
  <path
     id="path2"
     clip-path="url(#clipPath1)"
     d="m 323.19727,17.970703 c -4.5294,0.303296 -9.84713,3.907794 -25.31446,14.392578 -3.1306,2.127522 -6.26887,4.242731 -9.41601,6.345703 L 286.625,39.9375 c -4.71358,3.150072 -9.4545,6.25433 -14.2207,9.324219 -5.3162,3.420986 -10.61948,6.833069 -15.7793,10.488281 -3.27643,2.330031 -6.60138,4.539227 -10,6.6875 C 240.67771,70.185795 234.83799,74.084273 229,78 c -8.2933,5.562815 -16.62041,11.067823 -25,16.5 -6.04783,3.918964 -12.07596,7.863 -18.0625,11.875 -3.2996,2.21274 -6.60456,4.41238 -9.95312,6.55078 -4.39845,2.77054 -8.74107,5.56993 -12.98438,8.57422 -3.34246,2.36647 -6.72355,4.6277 -10.1875,6.8125 -4.29512,2.70544 -8.53492,5.4845 -12.75,8.3125 -3.48901,2.34786 -6.98106,4.68537 -10.52539,6.94922 -8.99652,5.6987 -17.9211,11.16827 -25.75977,18.42578 -9.443552,10.62659 -9.443514,10.62571 -9.267574,43.38672 0.0135,2.42057 0.02003,4.8411 0.01953,7.26172 -0.0103,6.61811 -0.0065,13.2374 0.01758,19.85547 0.0257,7.02654 0.03511,14.05349 0.03711,21.08007 0.0032,12.52644 0.02159,25.05174 0.05469,37.57813 0.0325,12.18549 0.05645,24.37111 0.06445,36.55664 l 0.002,2.2832 0.0059,9.09375 c 0.0072,11.68472 0.02206,23.36997 0.03906,35.05469 0.005,3.51214 0.0097,7.02496 0.01367,10.53711 0.0089,7.44824 0.01986,14.89552 0.03906,22.34375 0.007,2.47868 0.01353,4.95686 0.01953,7.43555 0.0038,3.46274 0.0085,6.92594 0.01953,10.38867 l 0.01172,3.12109 -0.002,2.92969 0.01367,2.67578 c 0.01607,6.84305 2.046066,12.94451 6.509766,18.23047 7.84245,6.53534 7.84201,6.53576 34.16016,6.44336 1.4884,-0.006 2.97643,-0.008 4.46484,-0.006 4.1344,0.008 8.2699,0.01 12.4043,0.002 4.51011,-0.008 9.01917,-0.009 13.52929,-0.006 8.85326,0.007 17.70728,0.005 26.56055,-0.004 10.42307,-0.0112 20.84645,-0.014 31.26953,-0.0137 18.61362,9e-4 37.22624,-0.005 55.83985,-0.0195 18.0597,-0.0143 36.11997,-0.0238 54.17968,-0.0234 h 3.36524 3.35937 c 20.70029,7e-4 41.40127,-0.003 62.10157,-0.0117 7.27593,-0.003 14.55023,-0.005 21.82617,-0.006 8.95051,-5e-4 17.90105,-0.004 26.85156,-0.0117 4.59954,-0.005 9.19929,-0.0119 13.79883,-0.0117 16.88471,0.005 33.76739,-0.0233 50.64844,-0.41406 1.55831,-0.0382 3.11743,-0.0775 4.67578,-0.11524 8.76434,-0.17937 18.19538,0.52068 26.01562,-4.02539 l 1.88672,-1.65234 1.92578,-1.59766 c 5.17922,-6.87883 5.17964,-6.87858 5.29492,-26.98828 0.01,-1.84589 0.0237,-3.69129 0.043,-5.53711 0.0591,-5.15616 0.10457,-10.31234 0.13477,-15.46875 0.0188,-3.33232 0.039,-6.66577 0.0644,-9.99804 0.37201,-45.73886 0.16726,-91.47607 -0.11719,-137.21485 -0.0166,-2.66454 -0.0327,-5.32764 -0.0488,-7.99219 -0.0616,-10.31542 -0.12748,-20.63192 -0.20508,-30.94726 -0.024,-3.17784 -0.0476,-6.35534 -0.0684,-9.5332 -0.0238,-3.73895 -0.0488,-7.47791 -0.0801,-11.2168 -0.012,-1.36943 -0.024,-2.73799 -0.0352,-4.10742 l -0.0215,-3.85742 -0.0352,-3.54102 C 555.14898,181.95805 555.0971,179.97749 555,178 c -1.06281,-7.555 -3.64989,-13.24557 -9.66406,-18.19141 l -3.20313,-2.23047 c -8.47857,-5.9247 -8.47881,-5.92518 -27.16406,-18.17382 -5.77702,-3.78925 -5.77671,-3.78826 -11.55078,-7.58203 l -2.82031,-1.85352 C 492.04003,124.34963 483.50673,118.69584 475,113 463.75516,105.47029 452.45049,98.039663 441.04688,90.751953 435.23858,87.046869 429.43832,83.355534 423.8125,79.375 420.59403,77.092439 417.33883,74.915105 414,72.8125 409.90002,70.230606 405.85155,67.583626 401.82422,64.890625 394.42007,59.930542 386.98482,55.025186 379.5,50.1875 c -4.00902,-2.578989 -8.01524,-5.152814 -11.92773,-7.876953 -5.2111,-3.67918 -10.46505,-7.258164 -15.83204,-10.707031 L 348.9375,29.8125 c -5.82242,-3.777909 -11.56732,-7.31058 -17.92578,-10.115234 -2.38973,-0.827517 -4.18204,-1.448222 -5.89453,-1.664063 -0.64219,-0.08094 -1.27287,-0.105828 -1.91992,-0.0625 z m 0.97851,20.238281 c 1.12071,-0.227732 2.28287,0.05506 4.02344,1.054688 l 2.71094,1.759766 c 4.83201,3.13152 9.63163,6.311903 14.41601,9.515624 15.80596,10.599728 15.80571,10.598996 50.98242,33.761719 6.87915,4.529113 13.75775,9.060409 20.63282,13.595703 2.95141,1.947068 5.9019,3.893076 8.85351,5.839846 1.90165,1.25425 3.8035,2.50929 5.70508,3.76367 10.14325,6.69437 20.29337,13.3772 30.48828,19.99219 10.26631,6.6607 20.48533,13.39208 30.69922,20.13281 1.74018,1.14851 3.48041,2.29695 5.2207,3.44531 1.72208,1.13531 3.44409,2.27072 5.16602,3.40625 4.11177,2.71946 8.21923,5.44339 12.38476,8.08008 l 2.41797,1.51563 c 1.52589,0.96357 3.05288,1.92716 4.58008,2.88867 l 2.0918,1.28125 1.95703,1.23633 c 2.31341,1.43063 4.08072,3.07755 6.06836,4.95703 2.8941,3.5484 3.02141,6.61632 3.07031,11.09179 l -0.043,2.98828 c 0.0139,3.38778 0.019,6.77435 -0.006,10.16211 -0.0191,2.48399 -0.0283,4.96906 -0.0293,7.45313 0.007,6.05303 0.002,12.10525 -0.0274,18.1582 -0.0406,7.89543 -0.0614,15.79002 -0.0684,23.68555 -0.0102,12.7941 -0.0372,25.58879 -0.084,38.38281 -0.0459,12.46771 -0.0857,24.93457 -0.10742,37.40235 l -0.004,2.33984 c -0.0106,6.16065 -0.0213,12.32177 -0.0312,18.48242 C 535.14598,390.29104 535.14565,390.29104 535,436 H 374 v -1 l 1.80078,-1.24219 c 17.86816,-11.6157 31.38757,-29.53807 39.03516,-49.35937 L 416,381 l 0.69141,-2.01953 c 8.94523,-27.17462 5.2956,-54.88818 -7.4043,-80.07617 C 396.98565,275.59747 374.02207,258.5133 349.0625,250.6875 346.2492,249.97376 346.2492,249.97376 344,249 l -1,-3 c 2.69738,-0.0994 5.39463,-0.20156 8.0918,-0.30664 l 3.3457,-0.13086 c 9.19872,-0.33823 18.49606,-0.4695 27.42969,-2.92188 L 384,242 c 11.3106,-3.33756 22.90651,-9.03622 31.75,-16.9375 9.13985,-8.54852 17.93889,-17.42725 22.97461,-29.23242 l 1.21289,-2.51758 C 442.8027,187.46178 444.53025,182.52429 445,176 l -3,-2 c -17.55904,-4.89498 -35.88718,-4.30414 -53.26953,0.76953 -23.07489,7.61109 -38.25195,20.94662 -49.22656,42.26563 L 338,220 h -2 c -2.65424,-6.77202 -5.30325,-13.67966 -9.92578,-19.37109 -3.39838,-3.27961 -5.06392,-4.59579 -9.88672,-4.75391 -3.03138,1.0699 -4.57554,1.3752 -6.1875,4.125 -0.40843,3.19943 -0.61487,5.14397 1.30469,7.81641 C 319.44542,218.30182 323.86868,230.75256 323,244 c -1.01807,1.2048 -1.01953,1.20383 -3.08008,1.40039 -10.03819,1.44808 -20.15697,2.7498 -29.85742,5.78711 -25.0838,9.17768 -46.506,26.09496 -58.76562,50.09766 L 230,304 c -9.82047,20.32127 -14.46715,44.90364 -8.03516,67.01172 L 223,374 c 7.00437,21.47893 18.45864,40.10281 36.3125,54.3125 3.18501,2.44645 5.81217,4.81216 8.6875,7.6875 H 115 c -0.0186,-29.35753 -0.0398,-58.71474 -0.0488,-88.07227 l -0.006,-17.96289 -0.002,-2.32031 c -0.004,-12.29915 -0.0105,-24.59928 -0.0195,-36.89844 -0.009,-12.65993 -0.0156,-25.31857 -0.0176,-37.97851 -0.001,-7.80336 -0.006,-15.6068 -0.0137,-23.41016 -0.005,-5.39712 -0.008,-10.79428 -0.008,-16.1914 5.6e-4,-2.50287 0.002,-5.0069 0.002,-7.50977 -0.005,-3.50086 -0.0116,-7.00109 -0.01,-10.50195 l 0.004,-3.15039 -0.01,-2.96875 0.006,-2.69922 c -7.2e-4,-1.4459 0.0335,-2.89282 0.12305,-4.33594 1.52795,-4.58388 3.76038,-7.98381 7.50977,-11.05664 l 2.89648,-1.88477 c 1.72896,-1.14046 3.4587,-2.27762 5.19922,-3.40039 1.2789,-0.82468 2.55484,-1.65301 3.82812,-2.48632 2.80584,-1.84334 5.61297,-3.6849 8.42579,-5.51758 5.06782,-3.29832 10.12544,-6.61341 15.17382,-9.94141 l 2.79102,-1.8418 c 1.88308,-1.24224 3.76541,-2.48426 5.64844,-3.72656 2.8607,-1.8875 5.72166,-3.77512 8.58398,-5.66015 11.39899,-7.50345 22.78929,-15.01935 34.13086,-22.60938 5.87408,-3.94064 11.76233,-7.85226 17.70703,-11.68555 8.48749,-5.470112 16.91105,-11.031579 25.30469,-16.644528 15.42785,-10.323768 30.8757,-20.615587 46.35547,-30.861328 1.98175,-1.310703 3.96401,-2.622223 5.94531,-3.933594 2.84839,-1.892149 5.69597,-3.78452 8.54883,-5.669922 l 2.60742,-1.720703 2.48047,-1.652344 2.26367,-1.490234 c 1.57569,-1.043291 2.65469,-1.78008 3.77539,-2.007813 z M 410.8125,189.9375 c 0.69287,0.005 1.38574,0.009 2.09961,0.0137 1.696,0.0117 3.39196,0.0296 5.08789,0.0488 l 1,3 c -9.2389,16.47875 -23.77517,25.78083 -41.19922,31.75391 C 370.41942,226.76445 362.58057,226.16742 355,226 c 1.82259,-6.1968 4.85532,-10.14894 9,-15 l 1.55859,-1.85156 c 11.22608,-12.2619 28.81314,-19.41547 45.25391,-19.21094 z M 372,286 c 7.78055,1.3943 13.47015,9.19601 18.05078,15.14453 12.61945,18.48661 16.18508,39.55288 12.62891,61.42578 -4.5105,22.75988 -17.70175,42.88324 -37.06641,55.86328 C 356.70744,423.77178 347.4991,427.69994 337,427 l -3,-2 c 0.63281,-1.85938 0.63281,-1.85938 2,-4 2.61719,-1.20313 2.61719,-1.20313 5.875,-2.25 18.68123,-6.75001 30.33645,-20.62847 38.875,-38 0.78849,-1.90116 1.53492,-3.82003 2.25,-5.75 0.46535,-1.23234 0.9307,-2.46468 1.41016,-3.73438 7.88593,-22.95539 4.79275,-47.64922 -5.59571,-69.21093 C 377.27744,298.99652 375.64991,295.99882 374,293 c -1.54543,-2.81209 -2,-3.72004 -2,-7 z"
     sodipodi:nodetypes="sccccccccccsccccccccccccccccccccccccccccscssccccccccccccscsccccccccccccccsccccccssscccccsccsccccccccccccccccsccccccccccccccccccccccccccccccccccccccccccccccccccccccccccccccccccccccsccccccccccccccccccccccc" />
</svg>
